<svg width="24" height="24" viewBox="0 0 24 24" fill="none" xmlns="http://www.w3.org/2000/svg">
<rect width="24" height="24" rx="12" fill="#FD1808"/>
<path d="M13.0818 7.22159C13.0963 6.55122 12.5568 6 11.8862 6C11.2148 6 10.6749 6.55267 10.6907 7.22393L10.854 14.1761C10.8672 14.7404 11.3285 15.191 11.893 15.191C12.4583 15.191 12.92 14.7392 12.9322 14.174L13.0818 7.22159ZM10.5001 17.7631C10.4911 18.5365 11.1296 19.166 11.903 19.166C12.6495 19.166 13.288 18.5365 13.288 17.7631C13.288 17.0077 12.6495 16.3871 11.903 16.3781C11.1296 16.3871 10.4911 17.0077 10.5001 17.7631Z" fill="white"/>
</svg>
