<svg width="24" height="24" viewBox="0 0 24 24" fill="none" xmlns="http://www.w3.org/2000/svg">
<rect width="24" height="24" rx="12" fill="#00A86B"/>
<path d="M16.455 7.45474C16.6663 7.25357 16.9475 7.14236 17.2392 7.14456C17.531 7.14677 17.8104 7.26223 18.0187 7.46657C18.2269 7.67091 18.3476 7.94815 18.3553 8.2398C18.363 8.53144 18.2571 8.81468 18.06 9.02974L12.075 16.5147C11.9721 16.6256 11.8479 16.7145 11.7098 16.7763C11.5717 16.838 11.4226 16.8713 11.2714 16.8741C11.1201 16.8769 10.9699 16.8492 10.8296 16.7926C10.6894 16.736 10.5619 16.6517 10.455 16.5447L6.48599 12.5757C6.37546 12.4727 6.28681 12.3485 6.22532 12.2105C6.16383 12.0725 6.13077 11.9236 6.1281 11.7725C6.12544 11.6215 6.15323 11.4714 6.20981 11.3313C6.26639 11.1913 6.35061 11.064 6.45743 10.9572C6.56426 10.8504 6.69151 10.7661 6.8316 10.7096C6.97168 10.653 7.12172 10.6252 7.27278 10.6278C7.42383 10.6305 7.5728 10.6636 7.7108 10.7251C7.8488 10.7866 7.973 10.8752 8.07599 10.9857L11.217 14.1252L16.4265 7.48774C16.4359 7.47619 16.4459 7.46517 16.4565 7.45474H16.455Z" fill="white"/>
</svg>
